<?xml version="1.0" encoding="utf-8"?>
<!-- Generator: Adobe Illustrator 16.0.0, SVG Export Plug-In . SVG Version: 6.00 Build 0)  -->
<!DOCTYPE svg PUBLIC "-//W3C//DTD SVG 1.1//EN" "http://www.w3.org/Graphics/SVG/1.1/DTD/svg11.dtd">
<svg version="1.1" id="Layer_1" xmlns="http://www.w3.org/2000/svg" xmlns:xlink="http://www.w3.org/1999/xlink" x="0px" y="0px"
	 width="300px" height="115px" viewBox="0 0 347 115" enable-background="new 0 0 347 115" xml:space="preserve">
<g>
	<g>
		<path fill="#FFFFFF" d="M27.068,3.518c3.412,21.1-10.816,36.345-23.638,51.089c-1.538,1.768,2.206,1.86,3.139,0.787
			C19.865,40.104,34.464,24.327,30.932,2.482C30.695,1.019,26.816,1.957,27.068,3.518L27.068,3.518z"/>
	</g>
</g>
<g>
	<g>
		<path fill="#FFFFFF" d="M6.941,57.792C10.144,46.34,17.73,36.24,25.573,27.532c7.482-8.307,16.59-16.663,27.223-20.615
			c-0.909-0.133-1.818-0.266-2.728-0.399c5.156,14.248-16.712,16.537-24.642,23.076c-1.765,1.456,2.074,1.698,3.146,0.813
			c8.462-6.978,31.099-9.064,25.358-24.924c-0.379-1.049-1.978-0.678-2.728-0.399C39.937,9.272,30.443,18.026,22.427,26.718
			c-8.262,8.958-16.045,19.615-19.368,31.49C2.622,59.771,6.538,59.23,6.941,57.792L6.941,57.792z"/>
	</g>
</g>
<g>
	<g>
		<path fill="#FFFFFF" d="M23.068,30.518c-0.119,7.391-1.866,14.617-2,22c0.072,0.128,0.184,0.197,0.337,0.206
			c5.978,1.184,11.41,1.664,17.249-0.333c2.617-0.896,0.123-1.27-1.31-0.78c-3.75,1.283-7.47,0.667-11.251-0.036
			c-2.143-0.398-0.796-5.841-0.644-7.128c0.591-4.998,1.4-9.917,1.481-14.963C26.94,28.952,23.085,29.454,23.068,30.518
			L23.068,30.518z"/>
	</g>
</g>
<g>
	<g>
		<path fill="#FFFFFF" d="M53.394,38.471c-1.359,1.525-2.642,3.162-3.618,4.963c-0.623,1.15-1.146,2.464-1.219,3.783
			c-0.123,2.238,1.213,3.905,3.277,4.631c2.14,0.753,4.703,0.52,6.81-0.227c2.308-0.818,4.571-2.221,5.68-4.496
			c2.123-4.356-1.72-8.61-4.828-11.213c-1.255-1.051-4.672,0.767-2.994,2.172c0.198,0.166,0.394,0.333,0.588,0.504
			c0.032,0.028,0.34,0.309,0.093,0.082c0.089,0.082,0.177,0.164,0.265,0.247c0.356,0.336,0.699,0.688,1.03,1.049
			c0.545,0.597,1.045,1.237,1.48,1.919c0.092,0.144,0.178,0.292,0.263,0.44c0.054,0.095,0.31,0.601,0.105,0.186
			c0.145,0.293,0.268,0.596,0.375,0.904c0.09,0.261,0.162,0.529,0.219,0.799c0.027,0.128,0.048,0.257,0.066,0.386
			c0.018,0.127,0.05,0.665,0.024,0.146c0.024,0.49-0.03,0.981-0.15,1.457c-0.014,0.055-0.03,0.109-0.045,0.164
			c-0.068,0.234,0.123-0.37,0.044-0.14c-0.036,0.106-0.078,0.209-0.121,0.313c-0.094,0.223-0.207,0.437-0.331,0.644
			c-0.075,0.126-0.338,0.499,0.019-0.011c-0.064,0.092-0.132,0.181-0.202,0.268c-0.152,0.192-0.318,0.372-0.492,0.545
			c-0.116,0.115-0.478,0.431,0.045-0.031c-0.086,0.076-0.175,0.149-0.265,0.221c-0.197,0.157-0.404,0.302-0.615,0.44
			c-0.151,0.098-0.589,0.351,0.076-0.037c-0.102,0.06-0.206,0.116-0.31,0.171c-0.228,0.121-0.462,0.229-0.699,0.33
			c-0.109,0.047-0.22,0.09-0.332,0.133c-0.282,0.108,0.562-0.202,0.277-0.101c-0.056,0.02-0.113,0.039-0.169,0.058
			c-0.245,0.082-0.493,0.151-0.743,0.214c-0.115,0.028-0.23,0.054-0.346,0.079c-0.058,0.012-0.115,0.023-0.173,0.034
			c-0.295,0.057,0.59-0.101,0.294-0.052c-0.248,0.042-0.498,0.071-0.749,0.092c-0.227,0.019-0.454,0.028-0.681,0.029
			c-0.282,0.002,0.553,0.007,0.272,0.001c-0.055-0.001-0.111-0.003-0.166-0.006c-0.127-0.005-0.255-0.015-0.382-0.027
			c-0.212-0.02-0.423-0.051-0.633-0.09c-0.256-0.048,0.493,0.107,0.24,0.05c-0.05-0.011-0.1-0.024-0.15-0.036
			c-0.115-0.029-0.228-0.063-0.341-0.099c-0.179-0.057-0.842-0.354-0.223-0.061c-0.186-0.088-0.363-0.191-0.533-0.306
			c-0.077-0.052-0.15-0.107-0.223-0.165c-0.295-0.234,0.252,0.246,0.036,0.038c-0.143-0.137-0.269-0.289-0.383-0.45
			c-0.053-0.075-0.102-0.153-0.147-0.233c-0.186-0.319,0.134,0.298,0.013,0.027c-0.086-0.192-0.148-0.395-0.195-0.6
			c-0.027-0.117-0.045-0.235-0.061-0.354c-0.05-0.394,0,0.329-0.007-0.078c-0.006-0.277,0.02-0.555,0.061-0.829
			c0.046-0.312,0.123-0.62,0.212-0.922c0.08-0.27-0.115,0.345-0.023,0.074c0.032-0.097,0.068-0.192,0.104-0.288
			c0.076-0.203,0.161-0.402,0.25-0.6c0.384-0.859,0.877-1.667,1.407-2.442c-0.245,0.357-0.02,0.032,0.026-0.033
			c0.09-0.127,0.184-0.253,0.276-0.378c0.171-0.23,0.348-0.457,0.525-0.682c0.419-0.53,0.86-1.043,1.31-1.548
			c0.592-0.664,0.366-1.511-0.479-1.79C55.216,37.439,54.032,37.755,53.394,38.471L53.394,38.471z"/>
	</g>
</g>
<g>
	<g>
		<path fill="#FFFFFF" d="M76.089,27.319c-0.962,6.672-2.038,13.328-3,20c-0.06,0.145-0.028,0.265,0.097,0.361
			c3.917,2.33,10.876,2.837,12.573-2.588c2.012-6.431-6.091-7.743-10.421-6.884c-1.584,0.314-3.372,2.12-0.676,1.585
			c4.264-0.846,8.97,2.015,6.962,6.789c-0.594,1.413-1.593,1.176-2.831,0.763c-2.72-0.907-1.345-4.343-1.025-6.464
			c0.714-4.733,1.459-9.461,2.143-14.199C80.068,25.596,76.233,26.319,76.089,27.319L76.089,27.319z"/>
	</g>
</g>
<g>
	<g>
		<path fill="#FFFFFF" d="M92.745,44.779c2.608,0.019,5.233,0.242,7.737-0.658c3-1.077,3.939-3.476,4.422-6.465
			c0.064-0.128,0.037-0.232-0.083-0.311c-4.199-1.904-9.951-4.002-14.209-1c-2.811,1.982-1.407,5.804,0.082,8.171
			c1.843,2.933,4.871,5.352,8.474,5.22c5.419-0.199,8.292-4.3,9.737-9.081c0.229-0.757-3.517-0.279-3.809,0.688
			c-0.656,2.17-1.499,4.411-3.091,6.078c-0.233,0.245-1.404,0.854-0.676,0.755c-0.556,0.075-1.129-0.1-1.652-0.266
			c-2.8-0.887-4.999-3.742-6.126-6.32c-0.493-1.125-0.788-2.37-0.668-3.601c0.05-0.508,0.287-0.997,0.577-1.408
			c0.385-0.544-0.393-0.165,0.387-0.151c1.268,0.021,7.367,1.188,7.12,2.716c-0.227,1.402-0.679,3.299-1.924,4.167
			c0.43-0.3-0.665-0.044-1.026-0.044c-0.92-0.001-1.84-0.042-2.76-0.048c-0.923-0.006-1.943,0.243-2.732,0.732
			C91.913,44.332,91.998,44.774,92.745,44.779L92.745,44.779z"/>
	</g>
</g>
<g>
	<g>
		<path fill="#FFFFFF" d="M107.703,39.945c4.489-0.91,8.916-1.885,13.516-1.961c0.863-0.014,4.077-1.799,1.989-1.942
			c-10.92-0.745-18.413,7.706-15.139,18.476c0.364,1.198,4.214,0.119,3.863-1.035c-2.047-6.737,0.138-16.119,8.861-15.524
			c0.663-0.647,1.326-1.295,1.989-1.942c-4.93,0.081-9.669,1.063-14.484,2.039C106.595,38.4,105.032,40.486,107.703,39.945
			L107.703,39.945z"/>
	</g>
</g>
<g>
	<g>
		<path fill="#FFFFFF" d="M124.309,50.151c11.563-2.954,10.671-16.876,10.636-26.344c-0.007-1.843-3.895-1.117-3.89,0.387
			c0.026,6.977,1.556,21.377-7.364,23.656C121.326,48.453,121.953,50.753,124.309,50.151L124.309,50.151z"/>
	</g>
</g>
<g>
	<g>
		<path fill="#FFFFFF" d="M120.83,43.418c13.407-0.044,26.74-1.006,40-3c2.119-0.318,2.962-3.23,0.341-2.836
			c-13.26,1.994-26.592,2.957-40,3C118.96,40.589,118.207,43.426,120.83,43.418L120.83,43.418z"/>
	</g>
</g>
<g>
	<g>
		<path fill="#FFFFFF" d="M181.103,21.216c13.652-5.528,26.488-12.105,41.636-11.459c0.777,0.033,4.408-1.433,2.523-1.514
			c-16.809-0.717-31.18,6.393-46.364,12.541C176.547,21.736,180.23,21.569,181.103,21.216L181.103,21.216z"/>
	</g>
</g>
<g>
	<g>
		<path fill="#FFFFFF" d="M194.043,13.149c-0.952,10.483-3.594,26.089-15.396,29.535c-2.361,0.689-1.672,3.325,0.705,2.631
			c13.749-4.015,17.463-19.904,18.604-32.465C198.138,10.861,194.201,11.412,194.043,13.149L194.043,13.149z"/>
	</g>
</g>
<g>
	<g>
		<path fill="#FFFFFF" d="M183.828,33.037c7.741-2.901,15.487-5.746,23.498-7.819c2.375-0.614,1.716-3.048-0.652-2.436
			c-8.354,2.161-16.431,5.156-24.502,8.181C179.674,31.899,181.906,33.757,183.828,33.037L183.828,33.037z"/>
	</g>
</g>
<g>
	<g>
		<path fill="#FFFFFF" d="M212.368,31.375c-2.451,2.454-5.206,5.052-5.331,8.751c-0.021,0.639,0.339,0.954,0.862,1.229
			c2.67,1.404,5.774,2.528,8.84,2.097c2.158-0.303,4.462-1.443,5.196-3.646c1.909-5.723-6.183-8.649-10.284-9.279
			c-1.987-0.305-3.896,2.543-1.303,2.941c2.731,0.419,8.212,1.963,7.877,5.675c-0.084,0.931-0.657,1.258-1.436,1.367
			c-2.31,0.325-4.711-0.829-6.689-1.869c0.287,0.41,0.575,0.82,0.862,1.229c0.104-3.097,2.625-5.204,4.669-7.249
			c0.669-0.67,0.265-1.676-0.531-1.981C214.113,30.266,213.075,30.668,212.368,31.375L212.368,31.375z"/>
	</g>
</g>
<g>
	<g>
		<path fill="#FFFFFF" d="M244.038,16.131c-1.755,9.277-2.068,18.755-4,28c-0.413,1.979,3.549,1.53,3.924-0.262
			c1.931-9.245,2.244-18.723,4-28C248.339,13.873,244.379,14.33,244.038,16.131L244.038,16.131z"/>
	</g>
</g>
<g>
	<g>
		<path fill="#FFFFFF" d="M262.067,17.24c-0.121,9.84-2.068,19.389-4,29c-0.299,1.489,3.598,0.85,3.865-0.479
			c1.931-9.611,3.879-19.16,4-29C265.952,15.136,262.083,15.956,262.067,17.24L262.067,17.24z"/>
	</g>
</g>
<g>
	<g>
		<path fill="#FFFFFF" d="M252.636,37.695c5.744-1.023,11.298-2.799,17-4c1.499-0.316,3.432-1.96,0.729-1.391
			c-5.701,1.201-11.26,2.978-17,4C251.842,36.576,249.919,38.179,252.636,37.695L252.636,37.695z"/>
	</g>
</g>
<g>
	<g>
		<path fill="#FFFFFF" d="M289.312,35.162c7.589-1.587,14.642,1.239,21.178,4.872c0.089-0.592,0.178-1.183,0.267-1.775
			c-5.509,4.144-12.198,6.305-18,10c-2.213,1.41,1.062,2.391,2.488,1.483c5.807-3.699,12.474-5.844,18-10
			c0.554-0.417,1.12-1.3,0.267-1.775c-7.795-4.333-15.896-6.995-24.822-5.128C286.283,33.342,286.95,35.655,289.312,35.162
			L289.312,35.162z"/>
	</g>
</g>
<g>
	<g>
		<path fill="#FFFFFF" d="M292.368,50.373c1.398-0.317,8.926-2.528,9.001,0.623c0.062,2.635-2.68,5.468-4.228,7.336
			c-4.348,5.25-9.609,10.17-15.563,13.509c-18.764,10.522-39.243,17.864-60.007,23.299c-42.474,11.117-89.628,14.755-132.465,3.524
			c-0.246,0.903-0.492,1.806-0.738,2.709c39.505-12.534,81.066-16.604,122.156-20.305c20.389-1.836,40.784-3.548,61.113-5.975
			c22.69-2.709,45.35-5.723,68.204-6.631c2.228-0.088,2.946-3.026,0.318-2.922c-22.853,0.908-45.519,3.902-68.204,6.631
			c-20.923,2.518-41.923,4.247-62.909,6.137c-40.83,3.677-82.164,7.867-121.414,20.32c-1.036,0.329-2.616,2.217-0.738,2.709
			c47.833,12.542,100.43,7.27,147.328-6.795c11.604-3.48,22.983-7.741,34.019-12.736c8.666-3.922,17.36-8.016,24.463-14.42
			c4.415-3.98,11.087-9.52,12.421-15.645c1.479-6.797-8.369-5.164-12.049-4.44c-0.481,0.109-0.962,0.218-1.443,0.327
			C289.202,48.178,289.965,50.917,292.368,50.373L292.368,50.373z"/>
	</g>
</g>
</svg>
